<svg width="859" height="242" viewBox="0 0 859 242" fill="none" xmlns="http://www.w3.org/2000/svg">
<mask id="path-1-outside-1_467_374" maskUnits="userSpaceOnUse" x="71" y="51" width="721" height="86" fill="black">
<rect fill="white" x="71" y="51" width="721" height="86"/>
<path d="M87.8567 133H73.9367V53.32H87.8567V70.12C89.3767 68.68 91.0967 67.96 93.0167 67.96C103.817 67.96 109.217 73.68 109.217 85.12V114.28C109.217 125.72 103.817 131.44 93.0167 131.44C90.9367 131.44 89.2167 130.92 87.8567 129.88V133ZM87.7367 113.2C87.7367 116.4 88.8967 118 91.2167 118C93.5367 118 94.6967 116.4 94.6967 113.2V86.2C94.6967 83 93.5367 81.4 91.2167 81.4C88.9767 81.4 87.8567 82.76 87.8567 85.48L87.7367 113.2ZM155.895 133H141.495V128.8C139.495 132.72 136.335 134.68 132.015 134.68C124.015 134.68 120.015 128.76 120.015 116.92V113.32C120.015 106.04 121.855 100.92 125.535 97.96C126.575 97.16 130.015 95.68 135.855 93.52C139.615 92.16 141.495 89.8 141.495 86.44V71.56C141.495 68.36 140.335 66.76 138.015 66.76C135.695 66.76 134.535 68.36 134.535 71.56V90.76H121.215V70.48C121.215 59.04 127.055 53.32 138.735 53.32C150.175 53.32 155.895 59.04 155.895 70.48V133ZM141.495 117.28V103.36C138.295 105.92 136.575 107.36 136.335 107.68C135.135 109.2 134.535 111.48 134.535 114.52V116.08C134.535 119.52 135.935 121.24 138.735 121.24C140.575 121.24 141.495 119.92 141.495 117.28ZM180.599 133H166.679V53.32H180.599V55.48C182.119 54.04 183.839 53.32 185.759 53.32C196.559 53.32 201.959 59.04 201.959 70.48V94.36H187.439V71.56C187.439 68.36 186.319 66.76 184.079 66.76C181.759 66.76 180.599 68.36 180.599 71.56V133ZM226.677 133H212.757V53.32H226.677V70.12C228.197 68.68 229.917 67.96 231.837 67.96C242.637 67.96 248.037 73.68 248.037 85.12V114.28C248.037 125.72 242.637 131.44 231.837 131.44C229.757 131.44 228.037 130.92 226.677 129.88V133ZM226.557 113.2C226.557 116.4 227.717 118 230.037 118C232.357 118 233.517 116.4 233.517 113.2V86.2C233.517 83 232.357 81.4 230.037 81.4C227.797 81.4 226.677 82.76 226.677 85.48L226.557 113.2ZM294.715 133H280.315V128.8C278.315 132.72 275.155 134.68 270.835 134.68C262.835 134.68 258.835 128.76 258.835 116.92V113.32C258.835 106.04 260.675 100.92 264.355 97.96C265.395 97.16 268.835 95.68 274.675 93.52C278.435 92.16 280.315 89.8 280.315 86.44V71.56C280.315 68.36 279.155 66.76 276.835 66.76C274.515 66.76 273.355 68.36 273.355 71.56V90.76H260.035V70.48C260.035 59.04 265.875 53.32 277.555 53.32C288.995 53.32 294.715 59.04 294.715 70.48V133ZM280.315 117.28V103.36C277.115 105.92 275.395 107.36 275.155 107.68C273.955 109.2 273.355 111.48 273.355 114.52V116.08C273.355 119.52 274.755 121.24 277.555 121.24C279.395 121.24 280.315 119.92 280.315 117.28ZM319.419 133H305.499V53.32H319.419V55.48C320.939 54.04 322.659 53.32 324.579 53.32C335.379 53.32 340.779 59.04 340.779 70.48V94.36H326.259V71.56C326.259 68.36 325.139 66.76 322.899 66.76C320.579 66.76 319.419 68.36 319.419 71.56V133ZM387.457 133H373.057V128.8C371.057 132.72 367.897 134.68 363.577 134.68C355.577 134.68 351.577 128.76 351.577 116.92V113.32C351.577 106.04 353.417 100.92 357.097 97.96C358.137 97.16 361.577 95.68 367.417 93.52C371.177 92.16 373.057 89.8 373.057 86.44V71.56C373.057 68.36 371.897 66.76 369.577 66.76C367.257 66.76 366.097 68.36 366.097 71.56V90.76H352.777V70.48C352.777 59.04 358.617 53.32 370.297 53.32C381.737 53.32 387.457 59.04 387.457 70.48V133ZM373.057 117.28V103.36C369.857 105.92 368.137 107.36 367.897 107.68C366.697 109.2 366.097 111.48 366.097 114.52V116.08C366.097 119.52 367.497 121.24 370.297 121.24C372.137 121.24 373.057 119.92 373.057 117.28ZM446.681 133V71.56C446.681 68.36 445.561 66.76 443.321 66.76C441.001 66.76 439.841 68.36 439.841 71.56V133H425.921V53.32H439.841V55.48C441.361 54.04 443.081 53.32 445.001 53.32C453.321 53.32 458.441 56.68 460.361 63.4L460.841 62.2C463.241 56.28 466.841 53.32 471.641 53.32C478.761 53.32 482.321 58.28 482.321 68.2V133H467.801V72.76C467.801 68.76 466.881 66.76 465.041 66.76C462.561 66.76 461.321 69.16 461.321 73.96V133H446.681ZM528.856 133H514.456V128.8C512.456 132.72 509.296 134.68 504.976 134.68C496.976 134.68 492.976 128.76 492.976 116.92V113.32C492.976 106.04 494.816 100.92 498.496 97.96C499.536 97.16 502.976 95.68 508.816 93.52C512.576 92.16 514.456 89.8 514.456 86.44V71.56C514.456 68.36 513.296 66.76 510.976 66.76C508.656 66.76 507.496 68.36 507.496 71.56V90.76H494.176V70.48C494.176 59.04 500.016 53.32 511.696 53.32C523.136 53.32 528.856 59.04 528.856 70.48V133ZM514.456 117.28V103.36C511.256 105.92 509.536 107.36 509.296 107.68C508.096 109.2 507.496 111.48 507.496 114.52V116.08C507.496 119.52 508.896 121.24 511.696 121.24C513.536 121.24 514.456 119.92 514.456 117.28ZM554.16 133H539.64V53.32H554.16V133ZM579.379 133H564.859V53.32H579.379V133ZM625.957 133H611.557V128.8C609.557 132.72 606.397 134.68 602.077 134.68C594.077 134.68 590.077 128.76 590.077 116.92V113.32C590.077 106.04 591.917 100.92 595.597 97.96C596.637 97.16 600.077 95.68 605.917 93.52C609.677 92.16 611.557 89.8 611.557 86.44V71.56C611.557 68.36 610.397 66.76 608.077 66.76C605.757 66.76 604.597 68.36 604.597 71.56V90.76H591.277V70.48C591.277 59.04 597.117 53.32 608.797 53.32C620.237 53.32 625.957 59.04 625.957 70.48V133ZM611.557 117.28V103.36C608.357 105.92 606.637 107.36 606.397 107.68C605.197 109.2 604.597 111.48 604.597 114.52V116.08C604.597 119.52 605.997 121.24 608.797 121.24C610.637 121.24 611.557 119.92 611.557 117.28ZM650.661 133H636.741V53.32H650.661V55.48C652.181 54.04 653.901 53.32 655.821 53.32C666.621 53.32 672.021 59.04 672.021 70.48V94.36H657.501V71.56C657.501 68.36 656.381 66.76 654.141 66.76C651.821 66.76 650.661 68.36 650.661 71.56V133ZM697.34 67.96H682.82V53.32H697.34V67.96ZM697.34 133H682.82V73.36H697.34V133ZM721.958 133H708.038V53.32H721.958V55.48C723.478 54.04 725.198 53.32 727.118 53.32C737.918 53.32 743.318 59.04 743.318 70.48V133H728.798V71.56C728.798 68.36 727.678 66.76 725.438 66.76C723.118 66.76 721.958 68.36 721.958 71.56V133ZM789.876 116.08C789.876 128.48 783.916 134.68 771.996 134.68C760.076 134.68 754.116 128.48 754.116 116.08V71.92C754.116 59.52 760.076 53.32 771.996 53.32C783.916 53.32 789.876 59.52 789.876 71.92V116.08ZM775.356 115.96V72.04C775.356 68.52 774.236 66.76 771.996 66.76C769.756 66.76 768.636 68.52 768.636 72.04V115.96C768.636 119.48 769.756 121.24 771.996 121.24C774.236 121.24 775.356 119.48 775.356 115.96Z"/>
</mask>
<path d="M87.8567 133V135H89.8567V133H87.8567ZM73.9367 133H71.9367V135H73.9367V133ZM73.9367 53.32V51.32H71.9367V53.32H73.9367ZM87.8567 53.32H89.8567V51.32H87.8567V53.32ZM87.8567 70.12H85.8567V74.7697L89.2322 71.5719L87.8567 70.12ZM87.8567 129.88L89.0716 128.291L85.8567 125.833V129.88H87.8567ZM87.7367 113.2L85.7367 113.191V113.2H87.7367ZM87.8567 85.48L89.8567 85.4887V85.48H87.8567ZM87.8567 131H73.9367V135H87.8567V131ZM75.9367 133V53.32H71.9367V133H75.9367ZM73.9367 55.32H87.8567V51.32H73.9367V55.32ZM85.8567 53.32V70.12H89.8567V53.32H85.8567ZM89.2322 71.5719C90.4174 70.449 91.6569 69.96 93.0167 69.96V65.96C90.5365 65.96 88.336 66.9109 86.4812 68.6681L89.2322 71.5719ZM93.0167 69.96C98.0781 69.96 101.514 71.2947 103.712 73.6229C105.931 75.9728 107.217 79.6805 107.217 85.12H111.217C111.217 79.1195 109.803 74.2472 106.621 70.877C103.419 67.4853 98.7554 65.96 93.0167 65.96V69.96ZM107.217 85.12V114.28H111.217V85.12H107.217ZM107.217 114.28C107.217 119.719 105.931 123.427 103.712 125.777C101.514 128.105 98.0781 129.44 93.0167 129.44V133.44C98.7554 133.44 103.419 131.915 106.621 128.523C109.803 125.153 111.217 120.281 111.217 114.28H107.217ZM93.0167 129.44C91.279 129.44 90.0129 129.011 89.0716 128.291L86.6418 131.469C88.4205 132.829 90.5945 133.44 93.0167 133.44V129.44ZM85.8567 129.88V133H89.8567V129.88H85.8567ZM85.7367 113.2C85.7367 114.982 86.049 116.679 86.9875 117.974C88.0125 119.388 89.5428 120 91.2167 120V116C90.5707 116 90.3609 115.812 90.2259 115.626C90.0044 115.321 89.7367 114.618 89.7367 113.2H85.7367ZM91.2167 120C92.8907 120 94.4209 119.388 95.4459 117.974C96.3844 116.679 96.6967 114.982 96.6967 113.2H92.6967C92.6967 114.618 92.429 115.321 92.2075 115.626C92.0725 115.812 91.8628 116 91.2167 116V120ZM96.6967 113.2V86.2H92.6967V113.2H96.6967ZM96.6967 86.2C96.6967 84.418 96.3844 82.7205 95.4459 81.4261C94.4209 80.0123 92.8907 79.4 91.2167 79.4V83.4C91.8628 83.4 92.0725 83.5877 92.2075 83.7739C92.429 84.0795 92.6967 84.782 92.6967 86.2H96.6967ZM91.2167 79.4C89.675 79.4 88.192 79.8868 87.1529 81.1486C86.1749 82.3361 85.8567 83.8959 85.8567 85.48H89.8567C89.8567 84.3441 90.0985 83.8639 90.2406 83.6914C90.3214 83.5932 90.5184 83.4 91.2167 83.4V79.4ZM85.8567 85.4713L85.7367 113.191L89.7367 113.209L89.8567 85.4887L85.8567 85.4713ZM155.895 133V135H157.895V133H155.895ZM141.495 133H139.495V135H141.495V133ZM141.495 128.8H143.495L139.713 127.891L141.495 128.8ZM125.535 97.96L124.315 96.3747L124.298 96.388L124.281 96.4016L125.535 97.96ZM135.855 93.52L135.175 91.6392L135.168 91.6417L135.161 91.6442L135.855 93.52ZM134.535 90.76V92.76H136.535V90.76H134.535ZM121.215 90.76H119.215V92.76H121.215V90.76ZM141.495 103.36H143.495V99.1987L140.245 101.798L141.495 103.36ZM136.335 107.68L137.905 108.919L137.92 108.9L137.935 108.88L136.335 107.68ZM155.895 131H141.495V135H155.895V131ZM143.495 133V128.8H139.495V133H143.495ZM139.713 127.891C138.848 129.586 137.788 130.755 136.571 131.51C135.356 132.264 133.864 132.68 132.015 132.68V136.68C134.486 136.68 136.734 136.116 138.679 134.91C140.622 133.705 142.141 131.934 143.276 129.709L139.713 127.891ZM132.015 132.68C128.586 132.68 126.251 131.457 124.672 129.12C122.999 126.644 122.015 122.677 122.015 116.92H118.015C118.015 123.003 119.031 127.916 121.358 131.36C123.779 134.943 127.444 136.68 132.015 136.68V132.68ZM122.015 116.92V113.32H118.015V116.92H122.015ZM122.015 113.32C122.015 106.314 123.789 101.931 126.788 99.5184L124.281 96.4016C119.92 99.9094 118.015 105.766 118.015 113.32H122.015ZM126.754 99.5452C127.045 99.3217 127.934 98.8407 129.685 98.0872C131.359 97.3669 133.643 96.4705 136.549 95.3958L135.161 91.6442C132.227 92.7295 129.87 93.6531 128.104 94.4128C126.416 95.1393 125.065 95.7983 124.315 96.3747L126.754 99.5452ZM136.535 95.4007C138.653 94.6348 140.415 93.525 141.649 91.9762C142.903 90.4017 143.495 88.5182 143.495 86.44H139.495C139.495 87.7218 139.146 88.6983 138.521 89.4838C137.874 90.295 136.817 91.0452 135.175 91.6392L136.535 95.4007ZM143.495 86.44V71.56H139.495V86.44H143.495ZM143.495 71.56C143.495 69.778 143.183 68.0805 142.244 66.7861C141.219 65.3723 139.689 64.76 138.015 64.76V68.76C138.661 68.76 138.871 68.9477 139.006 69.1339C139.227 69.4395 139.495 70.142 139.495 71.56H143.495ZM138.015 64.76C136.341 64.76 134.811 65.3723 133.786 66.7861C132.847 68.0805 132.535 69.778 132.535 71.56H136.535C136.535 70.142 136.803 69.4395 137.024 69.1339C137.159 68.9477 137.369 68.76 138.015 68.76V64.76ZM132.535 71.56V90.76H136.535V71.56H132.535ZM134.535 88.76H121.215V92.76H134.535V88.76ZM123.215 90.76V70.48H119.215V90.76H123.215ZM123.215 70.48C123.215 65.0789 124.591 61.3931 126.994 59.0388C129.406 56.677 133.193 55.32 138.735 55.32V51.32C132.597 51.32 127.624 52.823 124.195 56.1812C120.759 59.5469 119.215 64.4411 119.215 70.48H123.215ZM138.735 55.32C144.147 55.32 147.838 56.6716 150.191 59.0242C152.543 61.3769 153.895 65.0683 153.895 70.48H157.895C157.895 64.4517 156.386 59.5631 153.019 56.1958C149.652 52.8284 144.763 51.32 138.735 51.32V55.32ZM153.895 70.48V133H157.895V70.48H153.895ZM143.495 117.28V103.36H139.495V117.28H143.495ZM140.245 101.798C138.642 103.081 137.398 104.092 136.521 104.826C136.084 105.193 135.726 105.499 135.456 105.742C135.246 105.93 134.935 106.213 134.735 106.48L137.935 108.88C137.855 108.987 137.849 108.97 138.129 108.718C138.349 108.521 138.666 108.247 139.089 107.894C139.932 107.188 141.148 106.199 142.744 104.922L140.245 101.798ZM134.765 106.441C133.167 108.465 132.535 111.271 132.535 114.52H136.535C136.535 111.689 137.103 109.935 137.905 108.919L134.765 106.441ZM132.535 114.52V116.08H136.535V114.52H132.535ZM132.535 116.08C132.535 118.02 132.921 119.846 134.034 121.213C135.21 122.658 136.905 123.24 138.735 123.24V119.24C137.764 119.24 137.359 118.962 137.136 118.687C136.848 118.334 136.535 117.58 136.535 116.08H132.535ZM138.735 123.24C140.2 123.24 141.554 122.674 142.446 121.394C143.246 120.245 143.495 118.771 143.495 117.28H139.495C139.495 118.429 139.283 118.935 139.164 119.106C139.121 119.168 139.096 119.18 139.079 119.188C139.053 119.201 138.956 119.24 138.735 119.24V123.24ZM180.599 133V135H182.599V133H180.599ZM166.679 133H164.679V135H166.679V133ZM166.679 53.32V51.32H164.679V53.32H166.679ZM180.599 53.32H182.599V51.32H180.599V53.32ZM180.599 55.48H178.599V60.1297L181.974 56.9319L180.599 55.48ZM201.959 94.36V96.36H203.959V94.36H201.959ZM187.439 94.36H185.439V96.36H187.439V94.36ZM180.599 131H166.679V135H180.599V131ZM168.679 133V53.32H164.679V133H168.679ZM166.679 55.32H180.599V51.32H166.679V55.32ZM178.599 53.32V55.48H182.599V53.32H178.599ZM181.974 56.9319C183.16 55.809 184.399 55.32 185.759 55.32V51.32C183.279 51.32 181.078 52.2709 179.223 54.0281L181.974 56.9319ZM185.759 55.32C190.82 55.32 194.257 56.6547 196.455 58.9829C198.673 61.3328 199.959 65.0405 199.959 70.48H203.959C203.959 64.4795 202.545 59.6072 199.363 56.237C196.161 52.8453 191.498 51.32 185.759 51.32V55.32ZM199.959 70.48V94.36H203.959V70.48H199.959ZM201.959 92.36H187.439V96.36H201.959V92.36ZM189.439 94.36V71.56H185.439V94.36H189.439ZM189.439 71.56C189.439 69.788 189.14 68.1024 188.237 66.8131C187.244 65.3937 185.741 64.76 184.079 64.76V68.76C184.657 68.76 184.834 68.9263 184.96 69.1069C185.178 69.4176 185.439 70.132 185.439 71.56H189.439ZM184.079 64.76C182.405 64.76 180.875 65.3723 179.85 66.7861C178.911 68.0805 178.599 69.778 178.599 71.56H182.599C182.599 70.142 182.867 69.4395 183.088 69.1339C183.223 68.9477 183.433 68.76 184.079 68.76V64.76ZM178.599 71.56V133H182.599V71.56H178.599ZM226.677 133V135H228.677V133H226.677ZM212.757 133H210.757V135H212.757V133ZM212.757 53.32V51.32H210.757V53.32H212.757ZM226.677 53.32H228.677V51.32H226.677V53.32ZM226.677 70.12H224.677V74.7697L228.053 71.5719L226.677 70.12ZM226.677 129.88L227.892 128.291L224.677 125.833V129.88H226.677ZM226.557 113.2L224.557 113.191V113.2H226.557ZM226.677 85.48L228.677 85.4887V85.48H226.677ZM226.677 131H212.757V135H226.677V131ZM214.757 133V53.32H210.757V133H214.757ZM212.757 55.32H226.677V51.32H212.757V55.32ZM224.677 53.32V70.12H228.677V53.32H224.677ZM228.053 71.5719C229.238 70.449 230.477 69.96 231.837 69.96V65.96C229.357 65.96 227.156 66.9109 225.302 68.6681L228.053 71.5719ZM231.837 69.96C236.898 69.96 240.335 71.2947 242.533 73.6229C244.751 75.9728 246.037 79.6805 246.037 85.12H250.037C250.037 79.1195 248.623 74.2472 245.441 70.877C242.239 67.4853 237.576 65.96 231.837 65.96V69.96ZM246.037 85.12V114.28H250.037V85.12H246.037ZM246.037 114.28C246.037 119.719 244.751 123.427 242.533 125.777C240.335 128.105 236.898 129.44 231.837 129.44V133.44C237.576 133.44 242.239 131.915 245.441 128.523C248.623 125.153 250.037 120.281 250.037 114.28H246.037ZM231.837 129.44C230.099 129.44 228.833 129.011 227.892 128.291L225.462 131.469C227.241 132.829 229.415 133.44 231.837 133.44V129.44ZM224.677 129.88V133H228.677V129.88H224.677ZM224.557 113.2C224.557 114.982 224.869 116.679 225.808 117.974C226.833 119.388 228.363 120 230.037 120V116C229.391 116 229.181 115.812 229.046 115.626C228.825 115.321 228.557 114.618 228.557 113.2H224.557ZM230.037 120C231.711 120 233.241 119.388 234.266 117.974C235.205 116.679 235.517 114.982 235.517 113.2H231.517C231.517 114.618 231.249 115.321 231.028 115.626C230.893 115.812 230.683 116 230.037 116V120ZM235.517 113.2V86.2H231.517V113.2H235.517ZM235.517 86.2C235.517 84.418 235.205 82.7205 234.266 81.4261C233.241 80.0123 231.711 79.4 230.037 79.4V83.4C230.683 83.4 230.893 83.5877 231.028 83.7739C231.249 84.0795 231.517 84.782 231.517 86.2H235.517ZM230.037 79.4C228.495 79.4 227.012 79.8868 225.973 81.1486C224.995 82.3361 224.677 83.8959 224.677 85.48H228.677C228.677 84.3441 228.919 83.8639 229.061 83.6914C229.142 83.5932 229.339 83.4 230.037 83.4V79.4ZM224.677 85.4713L224.557 113.191L228.557 113.209L228.677 85.4887L224.677 85.4713ZM294.715 133V135H296.715V133H294.715ZM280.315 133H278.315V135H280.315V133ZM280.315 128.8H282.315L278.534 127.891L280.315 128.8ZM264.355 97.96L263.136 96.3747L263.119 96.388L263.102 96.4016L264.355 97.96ZM274.675 93.52L273.995 91.6392L273.988 91.6417L273.981 91.6442L274.675 93.52ZM273.355 90.76V92.76H275.355V90.76H273.355ZM260.035 90.76H258.035V92.76H260.035V90.76ZM280.315 103.36H282.315V99.1987L279.066 101.798L280.315 103.36ZM275.155 107.68L276.725 108.919L276.74 108.9L276.755 108.88L275.155 107.68ZM294.715 131H280.315V135H294.715V131ZM282.315 133V128.8H278.315V133H282.315ZM278.534 127.891C277.669 129.586 276.608 130.755 275.391 131.51C274.176 132.264 272.684 132.68 270.835 132.68V136.68C273.306 136.68 275.554 136.116 277.499 134.91C279.442 133.705 280.962 131.934 282.097 129.709L278.534 127.891ZM270.835 132.68C267.406 132.68 265.071 131.457 263.492 129.12C261.819 126.644 260.835 122.677 260.835 116.92H256.835C256.835 123.003 257.851 127.916 260.178 131.36C262.599 134.943 266.264 136.68 270.835 136.68V132.68ZM260.835 116.92V113.32H256.835V116.92H260.835ZM260.835 113.32C260.835 106.314 262.61 101.931 265.609 99.5184L263.102 96.4016C258.741 99.9094 256.835 105.766 256.835 113.32H260.835ZM265.575 99.5452C265.865 99.3217 266.754 98.8407 268.506 98.0872C270.18 97.3669 272.463 96.4705 275.369 95.3958L273.981 91.6442C271.047 92.7295 268.691 93.6531 266.925 94.4128C265.236 95.1393 263.885 95.7983 263.136 96.3747L265.575 99.5452ZM275.355 95.4007C277.473 94.6348 279.236 93.525 280.469 91.9762C281.724 90.4017 282.315 88.5182 282.315 86.44H278.315C278.315 87.7218 277.967 88.6983 277.341 89.4838C276.695 90.295 275.637 91.0452 273.995 91.6392L275.355 95.4007ZM282.315 86.44V71.56H278.315V86.44H282.315ZM282.315 71.56C282.315 69.778 282.003 68.0805 281.064 66.7861C280.039 65.3723 278.509 64.76 276.835 64.76V68.76C277.481 68.76 277.691 68.9477 277.826 69.1339C278.047 69.4395 278.315 70.142 278.315 71.56H282.315ZM276.835 64.76C275.161 64.76 273.631 65.3723 272.606 66.7861C271.667 68.0805 271.355 69.778 271.355 71.56H275.355C275.355 70.142 275.623 69.4395 275.844 69.1339C275.979 68.9477 276.189 68.76 276.835 68.76V64.76ZM271.355 71.56V90.76H275.355V71.56H271.355ZM273.355 88.76H260.035V92.76H273.355V88.76ZM262.035 90.76V70.48H258.035V90.76H262.035ZM262.035 70.48C262.035 65.0789 263.411 61.3931 265.815 59.0388C268.226 56.677 272.013 55.32 277.555 55.32V51.32C271.417 51.32 266.444 52.823 263.016 56.1812C259.579 59.5469 258.035 64.4411 258.035 70.48H262.035ZM277.555 55.32C282.967 55.32 286.658 56.6716 289.011 59.0242C291.364 61.3769 292.715 65.0683 292.715 70.48H296.715C296.715 64.4517 295.207 59.5631 291.839 56.1958C288.472 52.8284 283.583 51.32 277.555 51.32V55.32ZM292.715 70.48V133H296.715V70.48H292.715ZM282.315 117.28V103.36H278.315V117.28H282.315ZM279.066 101.798C277.462 103.081 276.218 104.092 275.341 104.826C274.904 105.193 274.546 105.499 274.276 105.742C274.066 105.93 273.755 106.213 273.555 106.48L276.755 108.88C276.675 108.987 276.669 108.97 276.949 108.718C277.169 108.521 277.486 108.247 277.909 107.894C278.752 107.188 279.968 106.199 281.565 104.922L279.066 101.798ZM273.585 106.441C271.987 108.465 271.355 111.271 271.355 114.52H275.355C275.355 111.689 275.923 109.935 276.725 108.919L273.585 106.441ZM271.355 114.52V116.08H275.355V114.52H271.355ZM271.355 116.08C271.355 118.02 271.742 119.846 272.854 121.213C274.031 122.658 275.726 123.24 277.555 123.24V119.24C276.585 119.24 276.18 118.962 275.956 118.687C275.669 118.334 275.355 117.58 275.355 116.08H271.355ZM277.555 123.24C279.021 123.24 280.374 122.674 281.266 121.394C282.067 120.245 282.315 118.771 282.315 117.28H278.315C278.315 118.429 278.104 118.935 277.984 119.106C277.942 119.168 277.916 119.18 277.9 119.188C277.873 119.201 277.776 119.24 277.555 119.24V123.24ZM319.419 133V135H321.419V133H319.419ZM305.499 133H303.499V135H305.499V133ZM305.499 53.32V51.32H303.499V53.32H305.499ZM319.419 53.32H321.419V51.32H319.419V53.32ZM319.419 55.48H317.419V60.1297L320.795 56.9319L319.419 55.48ZM340.779 94.36V96.36H342.779V94.36H340.779ZM326.259 94.36H324.259V96.36H326.259V94.36ZM319.419 131H305.499V135H319.419V131ZM307.499 133V53.32H303.499V133H307.499ZM305.499 55.32H319.419V51.32H305.499V55.32ZM317.419 53.32V55.48H321.419V53.32H317.419ZM320.795 56.9319C321.98 55.809 323.219 55.32 324.579 55.32V51.32C322.099 51.32 319.898 52.2709 318.044 54.0281L320.795 56.9319ZM324.579 55.32C329.641 55.32 333.077 56.6547 335.275 58.9829C337.493 61.3328 338.779 65.0405 338.779 70.48H342.779C342.779 64.4795 341.365 59.6072 338.184 56.237C334.981 52.8453 330.318 51.32 324.579 51.32V55.32ZM338.779 70.48V94.36H342.779V70.48H338.779ZM340.779 92.36H326.259V96.36H340.779V92.36ZM328.259 94.36V71.56H324.259V94.36H328.259ZM328.259 71.56C328.259 69.788 327.96 68.1024 327.058 66.8131C326.064 65.3937 324.561 64.76 322.899 64.76V68.76C323.477 68.76 323.654 68.9263 323.781 69.1069C323.998 69.4176 324.259 70.132 324.259 71.56H328.259ZM322.899 64.76C321.225 64.76 319.695 65.3723 318.67 66.7861C317.732 68.0805 317.419 69.778 317.419 71.56H321.419C321.419 70.142 321.687 69.4395 321.908 69.1339C322.043 68.9477 322.253 68.76 322.899 68.76V64.76ZM317.419 71.56V133H321.419V71.56H317.419ZM387.457 133V135H389.457V133H387.457ZM373.057 133H371.057V135H373.057V133ZM373.057 128.8H375.057L371.276 127.891L373.057 128.8ZM357.097 97.96L355.878 96.3747L355.861 96.388L355.844 96.4016L357.097 97.96ZM367.417 93.52L366.737 91.6392L366.73 91.6417L366.724 91.6442L367.417 93.52ZM366.097 90.76V92.76H368.097V90.76H366.097ZM352.777 90.76H350.777V92.76H352.777V90.76ZM373.057 103.36H375.057V99.1987L371.808 101.798L373.057 103.36ZM367.897 107.68L369.467 108.919L369.482 108.9L369.497 108.88L367.897 107.68ZM387.457 131H373.057V135H387.457V131ZM375.057 133V128.8H371.057V133H375.057ZM371.276 127.891C370.411 129.586 369.35 130.755 368.133 131.51C366.918 132.264 365.426 132.68 363.577 132.68V136.68C366.049 136.68 368.297 136.116 370.242 134.91C372.184 133.705 373.704 131.934 374.839 129.709L371.276 127.891ZM363.577 132.68C360.149 132.68 357.813 131.457 356.235 129.12C354.561 126.644 353.577 122.677 353.577 116.92H349.577C349.577 123.003 350.593 127.916 352.92 131.36C355.341 134.943 359.006 136.68 363.577 136.68V132.68ZM353.577 116.92V113.32H349.577V116.92H353.577ZM353.577 113.32C353.577 106.314 355.352 101.931 358.351 99.5184L355.844 96.4016C351.483 99.9094 349.577 105.766 349.577 113.32H353.577ZM358.317 99.5452C358.607 99.3217 359.496 98.8407 361.248 98.0872C362.922 97.3669 365.205 96.4705 368.111 95.3958L366.724 91.6442C363.789 92.7295 361.433 93.6531 359.667 94.4128C357.978 95.1393 356.627 95.7983 355.878 96.3747L358.317 99.5452ZM368.098 95.4007C370.215 94.6348 371.978 93.525 373.212 91.9762C374.466 90.4017 375.057 88.5182 375.057 86.44H371.057C371.057 87.7218 370.709 88.6983 370.083 89.4838C369.437 90.295 368.38 91.0452 366.737 91.6392L368.098 95.4007ZM375.057 86.44V71.56H371.057V86.44H375.057ZM375.057 71.56C375.057 69.778 374.745 68.0805 373.807 66.7861C372.782 65.3723 371.251 64.76 369.577 64.76V68.76C370.223 68.76 370.433 68.9477 370.568 69.1339C370.79 69.4395 371.057 70.142 371.057 71.56H375.057ZM369.577 64.76C367.903 64.76 366.373 65.3723 365.348 66.7861C364.41 68.0805 364.097 69.778 364.097 71.56H368.097C368.097 70.142 368.365 69.4395 368.587 69.1339C368.722 68.9477 368.931 68.76 369.577 68.76V64.76ZM364.097 71.56V90.76H368.097V71.56H364.097ZM366.097 88.76H352.777V92.76H366.097V88.76ZM354.777 90.76V70.48H350.777V90.76H354.777ZM354.777 70.48C354.777 65.0789 356.153 61.3931 358.557 59.0388C360.968 56.677 364.755 55.32 370.297 55.32V51.32C364.159 51.32 359.187 52.823 355.758 56.1812C352.322 59.5469 350.777 64.4411 350.777 70.48H354.777ZM370.297 55.32C375.709 55.32 379.4 56.6716 381.753 59.0242C384.106 61.3769 385.457 65.0683 385.457 70.48H389.457C389.457 64.4517 387.949 59.5631 384.582 56.1958C381.214 52.8284 376.326 51.32 370.297 51.32V55.32ZM385.457 70.48V133H389.457V70.48H385.457ZM375.057 117.28V103.36H371.057V117.28H375.057ZM371.808 101.798C370.204 103.081 368.961 104.092 368.083 104.826C367.646 105.193 367.289 105.499 367.019 105.742C366.809 105.93 366.497 106.213 366.297 106.48L369.497 108.88C369.417 108.987 369.411 108.97 369.691 108.718C369.911 108.521 370.229 108.247 370.651 107.894C371.494 107.188 372.711 106.199 374.307 104.922L371.808 101.798ZM366.328 106.441C364.73 108.465 364.097 111.271 364.097 114.52H368.097C368.097 111.689 368.665 109.935 369.467 108.919L366.328 106.441ZM364.097 114.52V116.08H368.097V114.52H364.097ZM364.097 116.08C364.097 118.02 364.484 119.846 365.596 121.213C366.773 122.658 368.468 123.24 370.297 123.24V119.24C369.327 119.24 368.922 118.962 368.698 118.687C368.411 118.334 368.097 117.58 368.097 116.08H364.097ZM370.297 123.24C371.763 123.24 373.116 122.674 374.008 121.394C374.809 120.245 375.057 118.771 375.057 117.28H371.057C371.057 118.429 370.846 118.935 370.727 119.106C370.684 119.168 370.658 119.18 370.642 119.188C370.615 119.201 370.518 119.24 370.297 119.24V123.24ZM446.681 133H444.681V135H446.681V133ZM439.841 133V135H441.841V133H439.841ZM425.921 133H423.921V135H425.921V133ZM425.921 53.32V51.32H423.921V53.32H425.921ZM439.841 53.32H441.841V51.32H439.841V53.32ZM439.841 55.48H437.841V60.1297L441.217 56.9319L439.841 55.48ZM460.361 63.4L458.438 63.9494L460.045 69.5747L462.218 64.1428L460.361 63.4ZM460.841 62.2L458.988 61.4486L458.984 61.4572L460.841 62.2ZM482.321 133V135H484.321V133H482.321ZM467.801 133H465.801V135H467.801V133ZM461.321 133V135H463.321V133H461.321ZM448.681 133V71.56H444.681V133H448.681ZM448.681 71.56C448.681 69.788 448.382 68.1024 447.48 66.8131C446.486 65.3937 444.983 64.76 443.321 64.76V68.76C443.899 68.76 444.076 68.9263 444.203 69.1069C444.42 69.4176 444.681 70.132 444.681 71.56H448.681ZM443.321 64.76C441.647 64.76 440.117 65.3723 439.092 66.7861C438.153 68.0805 437.841 69.778 437.841 71.56H441.841C441.841 70.142 442.109 69.4395 442.33 69.1339C442.465 68.9477 442.675 68.76 443.321 68.76V64.76ZM437.841 71.56V133H441.841V71.56H437.841ZM439.841 131H425.921V135H439.841V131ZM427.921 133V53.32H423.921V133H427.921ZM425.921 55.32H439.841V51.32H425.921V55.32ZM437.841 53.32V55.48H441.841V53.32H437.841ZM441.217 56.9319C442.402 55.809 443.641 55.32 445.001 55.32V51.32C442.521 51.32 440.32 52.2709 438.466 54.0281L441.217 56.9319ZM445.001 55.32C448.907 55.32 451.847 56.1101 453.984 57.5121C456.086 58.892 457.59 60.9813 458.438 63.9494L462.284 62.8506C461.212 59.0987 459.196 56.148 456.178 54.1679C453.195 52.2099 449.415 51.32 445.001 51.32V55.32ZM462.218 64.1428L462.698 62.9428L458.984 61.4572L458.504 62.6572L462.218 64.1428ZM462.695 62.9514C463.814 60.1913 465.147 58.2892 466.611 57.0848C468.042 55.9085 469.689 55.32 471.641 55.32V51.32C468.793 51.32 466.24 52.2114 464.071 53.9951C461.936 55.7508 460.269 58.2887 458.988 61.4486L462.695 62.9514ZM471.641 55.32C474.679 55.32 476.688 56.3417 478.026 58.2062C479.452 60.1931 480.321 63.4191 480.321 68.2H484.321C484.321 63.0609 483.41 58.8468 481.276 55.8738C479.054 52.7783 475.723 51.32 471.641 51.32V55.32ZM480.321 68.2V133H484.321V68.2H480.321ZM482.321 131H467.801V135H482.321V131ZM469.801 133V72.76H465.801V133H469.801ZM469.801 72.76C469.801 70.6695 469.57 68.8207 468.928 67.4242C468.595 66.7008 468.115 66.0176 467.422 65.5155C466.708 64.9981 465.887 64.76 465.041 64.76V68.76C465.088 68.76 465.102 68.7661 465.095 68.7638C465.092 68.7628 465.087 68.7611 465.082 68.7586C465.077 68.7561 465.075 68.7542 465.075 68.7545C465.076 68.7548 465.081 68.7588 465.091 68.7686C465.101 68.7785 465.116 68.795 465.136 68.8206C465.176 68.8726 465.231 68.9594 465.294 69.0958C465.572 69.6993 465.801 70.8505 465.801 72.76H469.801ZM465.041 64.76C464.084 64.76 463.155 64.9964 462.329 65.5294C461.513 66.0564 460.909 66.7997 460.474 67.642C459.634 69.2681 459.321 71.4528 459.321 73.96H463.321C463.321 71.6672 463.628 70.2519 464.028 69.478C464.213 69.1203 464.385 68.9636 464.498 68.8906C464.602 68.8236 464.758 68.76 465.041 68.76V64.76ZM459.321 73.96V133H463.321V73.96H459.321ZM461.321 131H446.681V135H461.321V131ZM528.856 133V135H530.856V133H528.856ZM514.456 133H512.456V135H514.456V133ZM514.456 128.8H516.456L512.674 127.891L514.456 128.8ZM498.496 97.96L497.276 96.3747L497.259 96.388L497.242 96.4016L498.496 97.96ZM508.816 93.52L508.136 91.6392L508.129 91.6417L508.122 91.6442L508.816 93.52ZM507.496 90.76V92.76H509.496V90.76H507.496ZM494.176 90.76H492.176V92.76H494.176V90.76ZM514.456 103.36H516.456V99.1987L513.206 101.798L514.456 103.36ZM509.296 107.68L510.866 108.919L510.881 108.9L510.896 108.88L509.296 107.68ZM528.856 131H514.456V135H528.856V131ZM516.456 133V128.8H512.456V133H516.456ZM512.674 127.891C511.809 129.586 510.749 130.755 509.532 131.51C508.317 132.264 506.825 132.68 504.976 132.68V136.68C507.447 136.68 509.695 136.116 511.64 134.91C513.583 133.705 515.102 131.934 516.237 129.709L512.674 127.891ZM504.976 132.68C501.547 132.68 499.212 131.457 497.633 129.12C495.96 126.644 494.976 122.677 494.976 116.92H490.976C490.976 123.003 491.992 127.916 494.319 131.36C496.74 134.943 500.405 136.68 504.976 136.68V132.68ZM494.976 116.92V113.32H490.976V116.92H494.976ZM494.976 113.32C494.976 106.314 496.75 101.931 499.749 99.5184L497.242 96.4016C492.881 99.9094 490.976 105.766 490.976 113.32H494.976ZM499.715 99.5452C500.006 99.3217 500.895 98.8407 502.646 98.0872C504.32 97.3669 506.604 96.4705 509.51 95.3958L508.122 91.6442C505.188 92.7295 502.831 93.6531 501.065 94.4128C499.377 95.1393 498.026 95.7983 497.276 96.3747L499.715 99.5452ZM509.496 95.4007C511.614 94.6348 513.376 93.525 514.61 91.9762C515.864 90.4017 516.456 88.5182 516.456 86.44H512.456C512.456 87.7218 512.107 88.6983 511.481 89.4838C510.835 90.295 509.778 91.0452 508.136 91.6392L509.496 95.4007ZM516.456 86.44V71.56H512.456V86.44H516.456ZM516.456 71.56C516.456 69.778 516.143 68.0805 515.205 66.7861C514.18 65.3723 512.65 64.76 510.976 64.76V68.76C511.622 68.76 511.832 68.9477 511.967 69.1339C512.188 69.4395 512.456 70.142 512.456 71.56H516.456ZM510.976 64.76C509.302 64.76 507.772 65.3723 506.747 66.7861C505.808 68.0805 505.496 69.778 505.496 71.56H509.496C509.496 70.142 509.763 69.4395 509.985 69.1339C510.12 68.9477 510.33 68.76 510.976 68.76V64.76ZM505.496 71.56V90.76H509.496V71.56H505.496ZM507.496 88.76H494.176V92.76H507.496V88.76ZM496.176 90.76V70.48H492.176V90.76H496.176ZM496.176 70.48C496.176 65.0789 497.552 61.3931 499.955 59.0388C502.367 56.677 506.154 55.32 511.696 55.32V51.32C505.558 51.32 500.585 52.823 497.156 56.1812C493.72 59.5469 492.176 64.4411 492.176 70.48H496.176ZM511.696 55.32C517.107 55.32 520.799 56.6716 523.152 59.0242C525.504 61.3769 526.856 65.0683 526.856 70.48H530.856C530.856 64.4517 529.347 59.5631 525.98 56.1958C522.613 52.8284 517.724 51.32 511.696 51.32V55.32ZM526.856 70.48V133H530.856V70.48H526.856ZM516.456 117.28V103.36H512.456V117.28H516.456ZM513.206 101.798C511.603 103.081 510.359 104.092 509.482 104.826C509.045 105.193 508.687 105.499 508.417 105.742C508.207 105.93 507.896 106.213 507.696 106.48L510.896 108.88C510.816 108.987 510.809 108.97 511.09 108.718C511.31 108.521 511.627 108.247 512.05 107.894C512.893 107.188 514.109 106.199 515.705 104.922L513.206 101.798ZM507.726 106.441C506.128 108.465 505.496 111.271 505.496 114.52H509.496C509.496 111.689 510.064 109.935 510.866 108.919L507.726 106.441ZM505.496 114.52V116.08H509.496V114.52H505.496ZM505.496 116.08C505.496 118.02 505.882 119.846 506.995 121.213C508.171 122.658 509.866 123.24 511.696 123.24V119.24C510.725 119.24 510.32 118.962 510.097 118.687C509.809 118.334 509.496 117.58 509.496 116.08H505.496ZM511.696 123.24C513.161 123.24 514.515 122.674 515.407 121.394C516.207 120.245 516.456 118.771 516.456 117.28H512.456C512.456 118.429 512.244 118.935 512.125 119.106C512.082 119.168 512.057 119.18 512.04 119.188C512.014 119.201 511.917 119.24 511.696 119.24V123.24ZM554.16 133V135H556.16V133H554.16ZM539.64 133H537.64V135H539.64V133ZM539.64 53.32V51.32H537.64V53.32H539.64ZM554.16 53.32H556.16V51.32H554.16V53.32ZM554.16 131H539.64V135H554.16V131ZM541.64 133V53.32H537.64V133H541.64ZM539.64 55.32H554.16V51.32H539.64V55.32ZM552.16 53.32V133H556.16V53.32H552.16ZM579.379 133V135H581.379V133H579.379ZM564.859 133H562.859V135H564.859V133ZM564.859 53.32V51.32H562.859V53.32H564.859ZM579.379 53.32H581.379V51.32H579.379V53.32ZM579.379 131H564.859V135H579.379V131ZM566.859 133V53.32H562.859V133H566.859ZM564.859 55.32H579.379V51.32H564.859V55.32ZM577.379 53.32V133H581.379V53.32H577.379ZM625.957 133V135H627.957V133H625.957ZM611.557 133H609.557V135H611.557V133ZM611.557 128.8H613.557L609.776 127.891L611.557 128.8ZM595.597 97.96L594.378 96.3747L594.361 96.388L594.344 96.4016L595.597 97.96ZM605.917 93.52L605.237 91.6392L605.23 91.6417L605.224 91.6442L605.917 93.52ZM604.597 90.76V92.76H606.597V90.76H604.597ZM591.277 90.76H589.277V92.76H591.277V90.76ZM611.557 103.36H613.557V99.1987L610.308 101.798L611.557 103.36ZM606.397 107.68L607.967 108.919L607.982 108.9L607.997 108.88L606.397 107.68ZM625.957 131H611.557V135H625.957V131ZM613.557 133V128.8H609.557V133H613.557ZM609.776 127.891C608.911 129.586 607.85 130.755 606.633 131.51C605.418 132.264 603.926 132.68 602.077 132.68V136.68C604.549 136.68 606.797 136.116 608.742 134.91C610.684 133.705 612.204 131.934 613.339 129.709L609.776 127.891ZM602.077 132.68C598.649 132.68 596.313 131.457 594.735 129.12C593.061 126.644 592.077 122.677 592.077 116.92H588.077C588.077 123.003 589.093 127.916 591.42 131.36C593.841 134.943 597.506 136.68 602.077 136.68V132.68ZM592.077 116.92V113.32H588.077V116.92H592.077ZM592.077 113.32C592.077 106.314 593.852 101.931 596.851 99.5184L594.344 96.4016C589.983 99.9094 588.077 105.766 588.077 113.32H592.077ZM596.817 99.5452C597.107 99.3217 597.996 98.8407 599.748 98.0872C601.422 97.3669 603.705 96.4705 606.611 95.3958L605.224 91.6442C602.289 92.7295 599.933 93.6531 598.167 94.4128C596.478 95.1393 595.127 95.7983 594.378 96.3747L596.817 99.5452ZM606.598 95.4007C608.715 94.6348 610.478 93.525 611.712 91.9762C612.966 90.4017 613.557 88.5182 613.557 86.44H609.557C609.557 87.7218 609.209 88.6983 608.583 89.4838C607.937 90.295 606.88 91.0452 605.237 91.6392L606.598 95.4007ZM613.557 86.44V71.56H609.557V86.44H613.557ZM613.557 71.56C613.557 69.778 613.245 68.0805 612.307 66.7861C611.282 65.3723 609.751 64.76 608.077 64.76V68.76C608.723 68.76 608.933 68.9477 609.068 69.1339C609.29 69.4395 609.557 70.142 609.557 71.56H613.557ZM608.077 64.76C606.403 64.76 604.873 65.3723 603.848 66.7861C602.91 68.0805 602.597 69.778 602.597 71.56H606.597C606.597 70.142 606.865 69.4395 607.087 69.1339C607.222 68.9477 607.431 68.76 608.077 68.76V64.76ZM602.597 71.56V90.76H606.597V71.56H602.597ZM604.597 88.76H591.277V92.76H604.597V88.76ZM593.277 90.76V70.48H589.277V90.76H593.277ZM593.277 70.48C593.277 65.0789 594.653 61.3931 597.057 59.0388C599.468 56.677 603.255 55.32 608.797 55.32V51.32C602.659 51.32 597.687 52.823 594.258 56.1812C590.822 59.5469 589.277 64.4411 589.277 70.48H593.277ZM608.797 55.32C614.209 55.32 617.9 56.6716 620.253 59.0242C622.606 61.3769 623.957 65.0683 623.957 70.48H627.957C627.957 64.4517 626.449 59.5631 623.082 56.1958C619.714 52.8284 614.826 51.32 608.797 51.32V55.32ZM623.957 70.48V133H627.957V70.48H623.957ZM613.557 117.28V103.36H609.557V117.28H613.557ZM610.308 101.798C608.704 103.081 607.461 104.092 606.583 104.826C606.146 105.193 605.789 105.499 605.519 105.742C605.309 105.93 604.997 106.213 604.797 106.48L607.997 108.88C607.917 108.987 607.911 108.97 608.191 108.718C608.411 108.521 608.729 108.247 609.151 107.894C609.994 107.188 611.211 106.199 612.807 104.922L610.308 101.798ZM604.828 106.441C603.23 108.465 602.597 111.271 602.597 114.52H606.597C606.597 111.689 607.165 109.935 607.967 108.919L604.828 106.441ZM602.597 114.52V116.08H606.597V114.52H602.597ZM602.597 116.08C602.597 118.02 602.984 119.846 604.096 121.213C605.273 122.658 606.968 123.24 608.797 123.24V119.24C607.827 119.24 607.422 118.962 607.198 118.687C606.911 118.334 606.597 117.58 606.597 116.08H602.597ZM608.797 123.24C610.263 123.24 611.616 122.674 612.508 121.394C613.309 120.245 613.557 118.771 613.557 117.28H609.557C609.557 118.429 609.346 118.935 609.227 119.106C609.184 119.168 609.158 119.18 609.142 119.188C609.115 119.201 609.018 119.24 608.797 119.24V123.24ZM650.661 133V135H652.661V133H650.661ZM636.741 133H634.741V135H636.741V133ZM636.741 53.32V51.32H634.741V53.32H636.741ZM650.661 53.32H652.661V51.32H650.661V53.32ZM650.661 55.48H648.661V60.1297L652.037 56.9319L650.661 55.48ZM672.021 94.36V96.36H674.021V94.36H672.021ZM657.501 94.36H655.501V96.36H657.501V94.36ZM650.661 131H636.741V135H650.661V131ZM638.741 133V53.32H634.741V133H638.741ZM636.741 55.32H650.661V51.32H636.741V55.32ZM648.661 53.32V55.48H652.661V53.32H648.661ZM652.037 56.9319C653.222 55.809 654.462 55.32 655.821 55.32V51.32C653.341 51.32 651.141 52.2709 649.286 54.0281L652.037 56.9319ZM655.821 55.32C660.883 55.32 664.319 56.6547 666.517 58.9829C668.735 61.3328 670.021 65.0405 670.021 70.48H674.021C674.021 64.4795 672.607 59.6072 669.426 56.237C666.224 52.8453 661.56 51.32 655.821 51.32V55.32ZM670.021 70.48V94.36H674.021V70.48H670.021ZM672.021 92.36H657.501V96.36H672.021V92.36ZM659.501 94.36V71.56H655.501V94.36H659.501ZM659.501 71.56C659.501 69.788 659.202 68.1024 658.3 66.8131C657.306 65.3937 655.803 64.76 654.141 64.76V68.76C654.719 68.76 654.896 68.9263 655.023 69.1069C655.24 69.4176 655.501 70.132 655.501 71.56H659.501ZM654.141 64.76C652.467 64.76 650.937 65.3723 649.912 66.7861C648.974 68.0805 648.661 69.778 648.661 71.56H652.661C652.661 70.142 652.929 69.4395 653.151 69.1339C653.286 68.9477 653.495 68.76 654.141 68.76V64.76ZM648.661 71.56V133H652.661V71.56H648.661ZM697.34 67.96V69.96H699.34V67.96H697.34ZM682.82 67.96H680.82V69.96H682.82V67.96ZM682.82 53.32V51.32H680.82V53.32H682.82ZM697.34 53.32H699.34V51.32H697.34V53.32ZM697.34 133V135H699.34V133H697.34ZM682.82 133H680.82V135H682.82V133ZM682.82 73.36V71.36H680.82V73.36H682.82ZM697.34 73.36H699.34V71.36H697.34V73.36ZM697.34 65.96H682.82V69.96H697.34V65.96ZM684.82 67.96V53.32H680.82V67.96H684.82ZM682.82 55.32H697.34V51.32H682.82V55.32ZM695.34 53.32V67.96H699.34V53.32H695.34ZM697.34 131H682.82V135H697.34V131ZM684.82 133V73.36H680.82V133H684.82ZM682.82 75.36H697.34V71.36H682.82V75.36ZM695.34 73.36V133H699.34V73.36H695.34ZM721.958 133V135H723.958V133H721.958ZM708.038 133H706.038V135H708.038V133ZM708.038 53.32V51.32H706.038V53.32H708.038ZM721.958 53.32H723.958V51.32H721.958V53.32ZM721.958 55.48H719.958V60.1297L723.334 56.9319L721.958 55.48ZM743.318 133V135H745.318V133H743.318ZM728.798 133H726.798V135H728.798V133ZM721.958 131H708.038V135H721.958V131ZM710.038 133V53.32H706.038V133H710.038ZM708.038 55.32H721.958V51.32H708.038V55.32ZM719.958 53.32V55.48H723.958V53.32H719.958ZM723.334 56.9319C724.519 55.809 725.758 55.32 727.118 55.32V51.32C724.638 51.32 722.438 52.2709 720.583 54.0281L723.334 56.9319ZM727.118 55.32C732.18 55.32 735.616 56.6547 737.814 58.9829C740.032 61.3328 741.318 65.0405 741.318 70.48H745.318C745.318 64.4795 743.904 59.6072 740.723 56.237C737.521 52.8453 732.857 51.32 727.118 51.32V55.32ZM741.318 70.48V133H745.318V70.48H741.318ZM743.318 131H728.798V135H743.318V131ZM730.798 133V71.56H726.798V133H730.798ZM730.798 71.56C730.798 69.788 730.499 68.1024 729.597 66.8131C728.603 65.3937 727.1 64.76 725.438 64.76V68.76C726.016 68.76 726.193 68.9263 726.32 69.1069C726.537 69.4176 726.798 70.132 726.798 71.56H730.798ZM725.438 64.76C723.764 64.76 722.234 65.3723 721.209 66.7861C720.271 68.0805 719.958 69.778 719.958 71.56H723.958C723.958 70.142 724.226 69.4395 724.448 69.1339C724.583 68.9477 724.792 68.76 725.438 68.76V64.76ZM719.958 71.56V133H723.958V71.56H719.958ZM787.876 116.08C787.876 121.991 786.455 126.054 783.965 128.644C781.489 131.22 777.628 132.68 771.996 132.68V136.68C778.285 136.68 783.364 135.04 786.848 131.416C790.318 127.806 791.876 122.569 791.876 116.08H787.876ZM771.996 132.68C766.365 132.68 762.504 131.22 760.028 128.644C757.538 126.054 756.116 121.991 756.116 116.08H752.116C752.116 122.569 753.675 127.806 757.145 131.416C760.629 135.04 765.708 136.68 771.996 136.68V132.68ZM756.116 116.08V71.92H752.116V116.08H756.116ZM756.116 71.92C756.116 66.009 757.538 61.9465 760.028 59.356C762.504 56.7803 766.365 55.32 771.996 55.32V51.32C765.708 51.32 760.629 52.9597 757.145 56.584C753.675 60.1935 752.116 65.431 752.116 71.92H756.116ZM771.996 55.32C777.628 55.32 781.489 56.7803 783.965 59.356C786.455 61.9465 787.876 66.009 787.876 71.92H791.876C791.876 65.431 790.318 60.1935 786.848 56.584C783.364 52.9597 778.285 51.32 771.996 51.32V55.32ZM787.876 71.92V116.08H791.876V71.92H787.876ZM777.356 115.96V72.04H773.356V115.96H777.356ZM777.356 72.04C777.356 70.1323 777.065 68.359 776.204 67.0062C775.245 65.5001 773.74 64.76 771.996 64.76V68.76C772.493 68.76 772.668 68.8998 772.829 69.1537C773.088 69.561 773.356 70.4277 773.356 72.04H777.356ZM771.996 64.76C770.253 64.76 768.748 65.5001 767.789 67.0062C766.928 68.359 766.636 70.1323 766.636 72.04H770.636C770.636 70.4277 770.905 69.561 771.164 69.1537C771.325 68.8998 771.5 68.76 771.996 68.76V64.76ZM766.636 72.04V115.96H770.636V72.04H766.636ZM766.636 115.96C766.636 117.868 766.928 119.641 767.789 120.994C768.748 122.5 770.253 123.24 771.996 123.24V119.24C771.5 119.24 771.325 119.1 771.164 118.846C770.905 118.439 770.636 117.572 770.636 115.96H766.636ZM771.996 123.24C773.74 123.24 775.245 122.5 776.204 120.994C777.065 119.641 777.356 117.868 777.356 115.96H773.356C773.356 117.572 773.088 118.439 772.829 118.846C772.668 119.1 772.493 119.24 771.996 119.24V123.24Z" fill="white" mask="url(#path-1-outside-1_467_374)"/>
<path d="M175.211 163.5H182.501C184.961 163.5 186.806 164.16 188.036 165.48C189.266 166.8 189.881 168.735 189.881 171.285V174.39C189.881 176.94 189.266 178.875 188.036 180.195C186.806 181.515 184.961 182.175 182.501 182.175H180.161V195H175.211V163.5ZM182.501 177.675C183.311 177.675 183.911 177.45 184.301 177C184.721 176.55 184.931 175.785 184.931 174.705V170.97C184.931 169.89 184.721 169.125 184.301 168.675C183.911 168.225 183.311 168 182.501 168H180.161V177.675H182.501ZM209.219 163.5H222.719V168H214.169V176.325H220.964V180.825H214.169V190.5H222.719V195H209.219V163.5ZM242.217 163.5H249.552C252.102 163.5 253.962 164.1 255.132 165.3C256.302 166.47 256.887 168.285 256.887 170.745V172.68C256.887 175.95 255.807 178.02 253.647 178.89V178.98C254.847 179.34 255.687 180.075 256.167 181.185C256.677 182.295 256.932 183.78 256.932 185.64V191.175C256.932 192.075 256.962 192.81 257.022 193.38C257.082 193.92 257.232 194.46 257.472 195H252.432C252.252 194.49 252.132 194.01 252.072 193.56C252.012 193.11 251.982 192.3 251.982 191.13V185.37C251.982 183.93 251.742 182.925 251.262 182.355C250.812 181.785 250.017 181.5 248.877 181.5H247.167V195H242.217V163.5ZM248.967 177C249.957 177 250.692 176.745 251.172 176.235C251.682 175.725 251.937 174.87 251.937 173.67V171.24C251.937 170.1 251.727 169.275 251.307 168.765C250.917 168.255 250.287 168 249.417 168H247.167V177H248.967ZM283.451 195.45C281.051 195.45 279.236 194.775 278.006 193.425C276.776 192.045 276.161 190.08 276.161 187.53V185.73H280.841V187.89C280.841 189.93 281.696 190.95 283.406 190.95C284.246 190.95 284.876 190.71 285.296 190.23C285.746 189.72 285.971 188.91 285.971 187.8C285.971 186.48 285.671 185.325 285.071 184.335C284.471 183.315 283.361 182.1 281.741 180.69C279.701 178.89 278.276 177.27 277.466 175.83C276.656 174.36 276.251 172.71 276.251 170.88C276.251 168.39 276.881 166.47 278.141 165.12C279.401 163.74 281.231 163.05 283.631 163.05C286.001 163.05 287.786 163.74 288.986 165.12C290.216 166.47 290.831 168.42 290.831 170.97V172.275H286.151V170.655C286.151 169.575 285.941 168.795 285.521 168.315C285.101 167.805 284.486 167.55 283.676 167.55C282.026 167.55 281.201 168.555 281.201 170.565C281.201 171.705 281.501 172.77 282.101 173.76C282.731 174.75 283.856 175.95 285.476 177.36C287.546 179.16 288.971 180.795 289.751 182.265C290.531 183.735 290.921 185.46 290.921 187.44C290.921 190.02 290.276 192 288.986 193.38C287.726 194.76 285.881 195.45 283.451 195.45ZM317.564 195.45C315.134 195.45 313.274 194.76 311.984 193.38C310.694 192 310.049 190.05 310.049 187.53V170.97C310.049 168.45 310.694 166.5 311.984 165.12C313.274 163.74 315.134 163.05 317.564 163.05C319.994 163.05 321.854 163.74 323.144 165.12C324.434 166.5 325.079 168.45 325.079 170.97V187.53C325.079 190.05 324.434 192 323.144 193.38C321.854 194.76 319.994 195.45 317.564 195.45ZM317.564 190.95C319.274 190.95 320.129 189.915 320.129 187.845V170.655C320.129 168.585 319.274 167.55 317.564 167.55C315.854 167.55 314.999 168.585 314.999 170.655V187.845C314.999 189.915 315.854 190.95 317.564 190.95ZM345.077 163.5H351.287L356.102 182.355H356.192V163.5H360.602V195H355.517L349.577 172.005H349.487V195H345.077V163.5ZM384.756 163.5H391.461L396.591 195H391.641L390.741 188.745V188.835H385.116L384.216 195H379.626L384.756 163.5ZM390.156 184.56L387.951 168.99H387.861L385.701 184.56H390.156ZM415.643 163.5H420.593V190.5H428.738V195H415.643V163.5ZM475.488 168H470.313V163.5H485.613V168H480.438V195H475.488V168ZM504.66 163.5H511.995C514.545 163.5 516.405 164.1 517.575 165.3C518.745 166.47 519.33 168.285 519.33 170.745V172.68C519.33 175.95 518.25 178.02 516.09 178.89V178.98C517.29 179.34 518.13 180.075 518.61 181.185C519.12 182.295 519.375 183.78 519.375 185.64V191.175C519.375 192.075 519.405 192.81 519.465 193.38C519.525 193.92 519.675 194.46 519.915 195H514.875C514.695 194.49 514.575 194.01 514.515 193.56C514.455 193.11 514.425 192.3 514.425 191.13V185.37C514.425 183.93 514.185 182.925 513.705 182.355C513.255 181.785 512.46 181.5 511.32 181.5H509.61V195H504.66V163.5ZM511.41 177C512.4 177 513.135 176.745 513.615 176.235C514.125 175.725 514.38 174.87 514.38 173.67V171.24C514.38 170.1 514.17 169.275 513.75 168.765C513.36 168.255 512.73 168 511.86 168H509.61V177H511.41ZM543.284 163.5H549.989L555.119 195H550.169L549.269 188.745V188.835H543.644L542.744 195H538.154L543.284 163.5ZM548.684 184.56L546.479 168.99H546.389L544.229 184.56H548.684ZM574.171 163.5H579.121V195H574.171V163.5ZM599.478 163.5H605.688L610.503 182.355H610.593V163.5H615.003V195H609.918L603.978 172.005H603.888V195H599.478V163.5ZM635.332 163.5H648.832V168H640.282V176.325H647.077V180.825H640.282V190.5H648.832V195H635.332V163.5ZM668.33 163.5H675.665C678.215 163.5 680.075 164.1 681.245 165.3C682.415 166.47 683 168.285 683 170.745V172.68C683 175.95 681.92 178.02 679.76 178.89V178.98C680.96 179.34 681.8 180.075 682.28 181.185C682.79 182.295 683.045 183.78 683.045 185.64V191.175C683.045 192.075 683.075 192.81 683.135 193.38C683.195 193.92 683.345 194.46 683.585 195H678.545C678.365 194.49 678.245 194.01 678.185 193.56C678.125 193.11 678.095 192.3 678.095 191.13V185.37C678.095 183.93 677.855 182.925 677.375 182.355C676.925 181.785 676.13 181.5 674.99 181.5H673.28V195H668.33V163.5ZM675.08 177C676.07 177 676.805 176.745 677.285 176.235C677.795 175.725 678.05 174.87 678.05 173.67V171.24C678.05 170.1 677.84 169.275 677.42 168.765C677.03 168.255 676.4 168 675.53 168H673.28V177H675.08Z" fill="white"/>
</svg>
